<svg width="50" height="50" viewBox="0 0 50 50" fill="none" xmlns="http://www.w3.org/2000/svg">
<rect x="1" y="1" width="48" height="48" rx="24" stroke="black" stroke-width="2"/>
<path d="M11.9852 35.8432H16.6175V24.5935L10 19.6304V33.8579C10 34.9564 10.8901 35.8432 11.9852 35.8432Z" fill="#4285F4"/>
<path d="M32.4994 35.8432H37.1317C38.2302 35.8432 39.1169 34.9531 39.1169 33.8579V19.6304L32.4994 24.5935" fill="#34A853"/>
<path d="M32.4994 15.9909V24.5936L39.1169 19.6305V16.9835C39.1169 14.5284 36.3144 13.1288 34.3523 14.6012" fill="#FBBC04"/>
<path d="M16.6175 24.5935V15.9907L24.5585 21.9465L32.4994 15.9907V24.5935L24.5585 30.5492" fill="#EA4335"/>
<path d="M10 16.9835V19.6305L16.6175 24.5936V15.9909L14.7646 14.6012C12.7992 13.1288 10 14.5284 10 16.9835Z" fill="#C5221F"/>
</svg>
