<svg width="13" height="9" viewBox="0 0 13 9" fill="none" xmlns="http://www.w3.org/2000/svg">
<path fill-rule="evenodd" clip-rule="evenodd" d="M10.6741 6.09803C10.4299 5.94869 10.1439 5.84358 9.83794 5.7907C9.532 5.73782 9.21417 5.73857 8.90867 5.79289C8.44965 5.93743 8.15306 6.48347 7.85646 6.75649C7.79392 6.82194 7.70202 6.86784 7.59801 6.88558C7.494 6.90332 7.38502 6.89168 7.29152 6.85285C5.61105 6.3539 4.20246 5.43891 3.29455 4.25649C3.21711 4.18271 3.18046 4.08902 3.19232 3.99516C3.20417 3.9013 3.26361 3.81459 3.35811 3.75328C3.68891 3.50503 3.93179 3.19755 4.06429 2.85928C4.09371 2.48616 3.98094 2.1145 3.73944 1.78862C3.55275 1.33175 3.19743 0.924933 2.71549 0.616248C2.46691 0.531498 2.1913 0.503081 1.92189 0.534427C1.65249 0.565774 1.4008 0.655544 1.1972 0.792907C0.843738 1.02409 0.563181 1.31242 0.376192 1.63669C0.189204 1.96095 0.100546 2.31288 0.116749 2.66656C0.11784 2.86518 0.151043 3.06294 0.215614 3.25543C0.379594 3.7179 0.631769 4.15975 0.964163 4.56699C1.20398 4.87894 1.46564 5.18094 1.74802 5.47169C2.66573 6.42671 3.81932 7.23757 5.14474 7.85927C5.80985 8.17519 6.5207 8.43205 7.26327 8.62479C8.03464 8.88986 8.88632 8.9916 9.72784 8.91922C10.2073 8.8642 10.6616 8.7207 11.0507 8.50133C11.4398 8.28196 11.7519 7.99345 11.9594 7.66119C12.0813 7.46048 12.1183 7.23609 12.0653 7.0188C11.9382 6.57447 11.1543 6.31216 10.6741 6.09803Z" fill="#00D95F"/>
</svg>
