<svg width="15" height="9" viewBox="0 0 15 9" fill="none" xmlns="http://www.w3.org/2000/svg">
<path d="M1.02273 8.49325H3.40909V4.16027L0 2.24866V7.72861C0 8.15171 0.458523 8.49325 1.02273 8.49325Z" fill="#4285F4"/>
<path d="M11.5909 8.49325H13.9773C14.5432 8.49325 15 8.15043 15 7.72861V2.24866L11.5909 4.16027" fill="#34A853"/>
<path d="M11.5909 0.846769V4.16023L15 2.24862V1.22909C15 0.283481 13.5563 -0.255593 12.5455 0.311518" fill="#FBBC04"/>
<path d="M3.40912 4.16026V0.846802L7.50003 3.14073L11.5909 0.846802V4.16026L7.50003 6.45419" fill="#EA4335"/>
<path d="M0 1.22909V2.24862L3.40909 4.16023V0.846769L2.45455 0.311518C1.44205 -0.255593 0 0.283481 0 1.22909Z" fill="#C5221F"/>
</svg>
