<svg width="22" height="19" viewBox="0 0 22 19" fill="none" xmlns="http://www.w3.org/2000/svg">
<path d="M21.4014 1.50263C17.8083 3.84007 16.0117 6.65612 16.0117 9.95079C16.0117 10.9748 16.187 11.4868 16.5376 11.4868L16.8991 11.3866C17.1839 11.2753 17.4139 11.2197 17.5892 11.2197C18.597 11.2197 19.4515 11.5981 20.1526 12.355C20.8537 13.1119 21.2042 14.0469 21.2042 15.1599C21.2042 16.2285 20.8318 17.1412 20.0869 17.8981C19.3419 18.6327 18.4437 19 17.392 19C15.9241 19 14.7081 18.3878 13.7441 17.1634C12.802 15.9391 12.331 14.403 12.331 12.5554C12.331 10.4405 12.7363 8.51494 13.5469 6.77856C14.3795 5.01992 15.6174 3.4505 17.2606 2.0703C18.9257 0.6901 19.9883 0 20.4484 0C20.7551 0 21.007 0.155828 21.2042 0.467485C21.4014 0.756882 21.5 1.01289 21.5 1.2355L21.4014 1.50263ZM9.57042 1.50263C5.97731 3.84007 4.18075 6.65612 4.18075 9.95079C4.18075 10.9748 4.35603 11.4868 4.70657 11.4868L5.06808 11.3866C5.3529 11.2753 5.58294 11.2197 5.75822 11.2197C6.78795 11.2197 7.64241 11.5981 8.3216 12.355C9.02269 13.1119 9.37324 14.0469 9.37324 15.1599C9.37324 16.2285 9.00078 17.1412 8.25587 17.8981C7.51096 18.6327 6.61268 19 5.56103 19C4.09311 19 2.87715 18.3878 1.91315 17.1634C0.971048 15.9391 0.5 14.403 0.5 12.5554C0.5 10.4628 0.905321 8.54833 1.71596 6.81195C2.5266 5.07557 3.76448 3.50615 5.42958 2.10369C7.09468 0.70123 8.15728 0 8.61737 0C8.9241 0 9.17606 0.155828 9.37324 0.467485C9.57042 0.756882 9.66901 1.01289 9.66901 1.2355L9.57042 1.50263Z" fill="#383838"/>
</svg>
