<svg width="250" height="225" viewBox="0 0 250 225" fill="none" xmlns="http://www.w3.org/2000/svg">
<path d="M125 140.028C107.793 140.028 93.802 127.499 93.802 112.09C93.802 96.6812 107.793 84.1527 125 84.1527C142.207 84.1527 156.197 96.6812 156.197 112.09C156.171 127.499 142.181 140.028 125 140.028ZM125 95.885C115.01 95.885 106.877 103.168 106.877 112.114C106.877 121.059 115.01 128.342 125 128.342C134.989 128.342 143.122 121.059 143.122 112.114C143.122 103.168 134.989 95.885 125 95.885Z" fill="#246293" fill-opacity="0.4"/>
<path d="M125.053 161.315C121.287 161.315 117.521 160.964 113.808 160.284C99.4513 157.615 87.1082 150.074 79.0538 139.091C70.9994 128.108 68.2274 114.971 71.2086 102.091C73.7975 90.944 80.6752 80.8978 90.5339 73.7787C100.288 66.7534 112.5 62.8894 124.948 62.8894C128.714 62.8894 132.48 63.2406 136.193 63.9198C150.55 66.5894 162.893 74.13 170.947 85.113C179.002 96.0959 181.773 109.233 178.792 122.113C176.203 133.26 169.326 143.306 159.467 150.425C149.687 157.451 137.474 161.315 125.053 161.315ZM124.948 74.5983C105.257 74.5983 88.0235 87.1503 83.9963 104.456C79.2892 124.689 93.8551 144.594 116.449 148.81C119.274 149.348 122.176 149.606 125.027 149.606C144.718 149.606 161.951 137.054 165.978 119.748C168.254 109.936 166.135 99.9365 160.016 91.5529C153.897 83.1693 144.483 77.4319 133.526 75.3945C130.701 74.8793 127.799 74.5983 124.948 74.5983Z" fill="#246293" fill-opacity="0.4"/>
<path d="M125.079 181.899C122.673 181.899 120.241 181.805 117.809 181.595C97.0716 179.885 78.3478 171.033 65.0372 156.701C51.7265 142.37 45.4765 124.244 47.3855 105.697C49.1899 88.2743 58.1334 72.1861 72.6208 60.4538C87.0037 48.7683 105.571 42.3518 124.896 42.3518C127.302 42.3518 129.734 42.4454 132.166 42.6562C152.903 44.3657 171.627 53.2177 184.938 67.5494C198.248 81.8812 204.498 100.007 202.589 118.577C200.785 136 191.842 152.088 177.354 163.82C162.971 175.459 144.404 181.899 125.079 181.899ZM124.896 54.0373C91.2401 54.0373 63.5204 76.7059 60.4084 106.774C57.1135 138.67 83.3949 167.005 119.012 169.956C121.026 170.12 123.065 170.213 125.079 170.213C158.735 170.213 186.454 147.545 189.566 117.476C192.861 85.5812 166.58 57.2456 130.963 54.2949C128.949 54.1076 126.91 54.0373 124.896 54.0373Z" fill="#246293" fill-opacity="0.4"/>
<path d="M125.053 202.881C123.876 202.881 122.673 202.858 121.47 202.835C107.793 202.413 94.6134 199.603 82.2964 194.474C70.3979 189.533 59.833 182.648 50.8372 174.031C41.8414 165.413 34.9376 155.484 30.2567 144.524C25.3927 133.166 23.196 121.2 23.6667 108.952C24.5819 85.2768 35.5652 63.1937 54.629 46.7543C73.6144 30.3618 98.5883 21.3225 124.922 21.3225C126.099 21.3225 127.302 21.3459 128.505 21.3693C142.181 21.7909 155.361 24.601 167.678 29.7295C179.577 34.6707 190.142 41.5556 199.137 50.1733C208.133 58.7911 215.037 68.7203 219.718 79.6799C224.582 91.0376 226.779 103.004 226.308 115.252C225.393 138.927 214.409 161.01 195.346 177.45C176.36 193.865 151.386 202.881 125.053 202.881ZM124.922 33.0315C77.1186 33.0315 38.3895 66.5658 36.742 109.374C35.0422 152.954 73.2745 189.627 121.915 191.149C122.961 191.172 124.007 191.196 125.027 191.196C172.83 191.196 211.559 157.661 213.206 114.854C214.906 71.2729 176.674 34.6004 128.034 33.0783C127.014 33.0549 125.968 33.0315 124.922 33.0315Z" fill="#246293" fill-opacity="0.4"/>
<path d="M125 224.051C108.133 224.051 91.7625 221.101 76.3337 215.246C61.454 209.602 48.091 201.547 36.6109 191.266C25.1308 180.986 16.1088 169.019 9.83266 155.694C3.32116 141.878 0 127.218 0 112.114C0 97.0092 3.295 82.3496 9.83266 68.5331C16.135 55.2083 25.1308 43.2418 36.6109 32.9613C48.091 22.6809 61.454 14.6017 76.3337 8.98142C91.7625 3.15036 108.133 0.17627 125 0.17627C141.867 0.17627 158.237 3.12695 173.666 8.98142C188.546 14.6251 201.909 22.6809 213.389 32.9613C224.869 43.2418 233.891 55.2083 240.167 68.5331C246.679 82.3496 250 97.0092 250 112.114C250 127.218 246.705 141.878 240.167 155.694C233.865 169.019 224.869 180.986 213.389 191.266C201.909 201.547 188.546 209.626 173.666 215.246C158.237 221.101 141.867 224.051 125 224.051ZM125 11.8618C63.2845 11.8618 13.0753 56.8241 13.0753 112.09C13.0753 167.357 63.2845 212.319 125 212.319C186.715 212.319 236.925 167.357 236.925 112.09C236.925 56.8475 186.715 11.8618 125 11.8618Z" fill="#246293" fill-opacity="0.4"/>
</svg>
