<svg width="38" height="194" viewBox="0 0 38 194" fill="none" xmlns="http://www.w3.org/2000/svg">
<path d="M18.6568 161.516L27.9664 177.668L37.276 193.82H18.6568H3.05176e-05L9.3098 177.668L18.6568 161.516Z" fill="#246293"/>
<path d="M18.6568 129.213L27.9664 145.365L37.276 161.516H18.6568H3.05176e-05L9.3098 145.365L18.6568 129.213Z" fill="#4188C0"/>
<path d="M18.6568 96.9098L27.9664 113.061L37.276 129.213H18.6568H3.05176e-05L9.3098 113.061L18.6568 96.9098Z" fill="#246293"/>
<path d="M18.6568 64.6065L27.9664 80.7581L37.276 96.9098H18.6568H3.05176e-05L9.3098 80.7581L18.6568 64.6065Z" fill="#4188C0"/>
<path d="M18.6568 32.3033L27.9664 48.4549L37.276 64.6065H18.6568H3.05176e-05L9.3098 48.4549L18.6568 32.3033Z" fill="#246293"/>
<path d="M18.6568 0L27.9664 16.1516L37.2759 32.3033H18.6568H0L9.30977 16.1516L18.6568 0Z" fill="#4188C0"/>
</svg>
